<svg width="54" height="18" viewBox="0 0 54 18" fill="none" xmlns="http://www.w3.org/2000/svg">
<mask id="mask0_18_34" style="mask-type:alpha" maskUnits="userSpaceOnUse" x="0" y="0" width="54" height="18">
<path d="M7.33394 6.43213C8.40191 6.43213 9.34472 6.66482 10.1624 7.13019C10.9801 7.59557 11.6058 8.25208 12.0397 9.09972C12.4902 9.93075 12.7155 10.8947 12.7155 11.9917C12.7155 13.2216 12.4485 14.2936 11.9145 15.2078C11.3972 16.1053 10.6463 16.795 9.66178 17.277C8.69393 17.759 7.55921 18 6.25763 18C4.27187 18 2.72833 17.5097 1.62698 16.5291C0.542328 15.5485 0 14.169 0 12.3906H4.25519C4.25519 12.9224 4.4304 13.3546 4.78083 13.687C5.14794 14.0028 5.62352 14.1607 6.20757 14.1607C6.82499 14.1607 7.30057 13.9778 7.63431 13.6122C7.98473 13.2465 8.15995 12.7313 8.15995 12.0665C8.15995 11.4017 7.97639 10.8781 7.60927 10.4958C7.24216 10.1136 6.69983 9.92244 5.98229 9.92244C5.61518 9.92244 5.28144 9.9723 4.98107 10.072C4.69739 10.1717 4.38868 10.3296 4.05494 10.5457H0.200244L0.926129 0.274238H11.8394V4.16343H4.68071L4.48046 6.95568C5.28144 6.60665 6.2326 6.43213 7.33394 6.43213Z" fill="#111111"/>
<path d="M24.3408 8.70083V12.3407H15.3048V8.70083H24.3408Z" fill="#111111"/>
<path d="M38.6852 13.7618V17.7258H26.2701V16.7535L32.9282 7.87812C33.579 6.99723 33.9044 6.19114 33.9044 5.45983C33.9044 4.96122 33.7626 4.57064 33.4789 4.28809C33.1952 4.00554 32.7947 3.86427 32.2774 3.86427C31.7268 3.86427 31.3012 4.06371 31.0009 4.4626C30.7005 4.8615 30.5503 5.47645 30.5503 6.30748H26.4453C26.4453 4.22992 26.971 2.65928 28.0222 1.59557C29.0902 0.531856 30.6087 0 32.5778 0C34.3633 0 35.7734 0.465374 36.8079 1.39612C37.8425 2.32687 38.3598 3.57341 38.3598 5.13574C38.3598 5.85042 38.2263 6.54848 37.9594 7.22992C37.709 7.89474 37.2752 8.65097 36.6578 9.49862L33.529 13.7618H38.6852Z" fill="#111111"/>
<path d="M50.0702 6.85596C51.2717 7.15512 52.2228 7.76177 52.9237 8.6759C53.6412 9.59003 54 10.7036 54 12.0166C54 13.1967 53.7247 14.2438 53.174 15.1579C52.6233 16.0554 51.8557 16.7535 50.8712 17.2521C49.8867 17.7507 48.7603 18 47.4921 18C45.4896 18 43.9127 17.5014 42.7613 16.5042C41.6266 15.4903 41.0592 14.1108 41.0592 12.3657H45.3144C45.3144 12.9307 45.523 13.3712 45.9402 13.687C46.3573 13.9862 46.8496 14.1357 47.417 14.1357C48.001 14.1357 48.4933 13.9529 48.8938 13.5873C49.2943 13.205 49.4945 12.6648 49.4945 11.9668C49.4945 11.1357 49.2275 10.5457 48.6935 10.1967C48.1595 9.83103 47.467 9.6482 46.616 9.6482H45.5147L45.1392 8.25208L47.2167 4.2133H41.71V0.274238H53.4994V0.922438L50.0702 6.85596Z" fill="#111111"/>
</mask>
<g mask="url(#mask0_18_34)">
<rect x="22" y="-11" width="41.875" height="41.875" fill="#47B1F6"/>
<rect x="-14" y="-12" width="38.9437" height="38.9437" rx="19.4719" fill="#6356FD"/>
<rect x="9" y="5" width="53.1813" height="53.1813" rx="26.5906" fill="#AD4BFC"/>
</g>
</svg>
