<svg width="50" height="50" viewBox="0 0 24 24" fill="none" xmlns="http://www.w3.org/2000/svg">
<path d="M10.0703 20.5029C10.0703 20.3563 10.038 20.2114 9.97576 20.0786C9.91352 19.9458 9.82283 19.8284 9.71012 19.7345C9.59741 19.6407 9.46545 19.5728 9.32357 19.5356C9.1817 19.4985 9.03339 19.493 8.88916 19.5195C7.58008 19.7598 5.92725 19.7959 5.48779 18.5615C5.10459 17.6055 4.46986 16.7711 3.65088 16.1465C3.59244 16.1148 3.53675 16.0782 3.48438 16.0372C3.4127 15.8481 3.28539 15.6852 3.11924 15.5699C2.95309 15.4547 2.75591 15.3925 2.55371 15.3916H2.54883C2.28443 15.3916 2.03075 15.4962 1.84334 15.6827C1.65592 15.8692 1.55003 16.1224 1.54883 16.3868C1.54492 17.2022 2.35983 17.7247 2.69043 17.9014C3.08027 18.2931 3.39358 18.7541 3.61426 19.2608C3.97852 20.2842 5.03711 21.837 8.08008 21.6368C8.08108 21.6719 8.08203 21.7051 8.08252 21.7354L8.08691 22.003C8.08691 22.2682 8.19226 22.5226 8.3798 22.7101C8.56734 22.8976 8.82169 23.003 9.08691 23.003C9.35212 23.003 9.60648 22.8976 9.79401 22.7101C9.98155 22.5226 10.0869 22.2682 10.0869 22.003L10.082 21.6846C10.0771 21.4951 10.0703 21.2207 10.0703 20.5029ZM20.7373 5.37694C20.769 5.25194 20.8003 5.11327 20.8276 4.95702C20.9894 3.84261 20.8484 2.70521 20.4194 1.66402C20.3653 1.52828 20.2822 1.40603 20.1758 1.30582C20.0694 1.20562 19.9424 1.12989 19.8037 1.08395C19.4477 0.963828 18.1333 0.727498 15.6196 2.33395C13.5302 1.84224 11.3551 1.84224 9.26564 2.33395C6.76221 0.751028 5.45459 0.965828 5.10205 1.07911C4.95991 1.12319 4.82944 1.19851 4.7202 1.29957C4.61095 1.40062 4.5257 1.52483 4.4707 1.66311C4.033 2.72429 3.89354 3.88488 4.06738 5.01955C4.0918 5.14748 4.11816 5.26565 4.14551 5.37404C3.31708 6.47748 2.87582 7.8234 2.89014 9.20314C2.88744 9.51097 2.90162 9.81873 2.93262 10.125C3.26662 14.7275 6.26662 16.1094 8.35693 16.584C8.31348 16.709 8.27393 16.8428 8.23877 16.9844C8.17611 17.2417 8.21804 17.5133 8.35537 17.7398C8.49269 17.9662 8.71421 18.1289 8.97134 18.1923C9.22847 18.2556 9.50022 18.2144 9.72701 18.0777C9.9538 17.941 10.1171 17.7199 10.1811 17.4629C10.2448 17.1297 10.4079 16.8236 10.6489 16.585C10.7947 16.4574 10.9002 16.2902 10.9527 16.1037C11.0051 15.9172 11.0023 15.7195 10.9445 15.5346C10.8866 15.3497 10.7763 15.1856 10.6269 15.0623C10.4775 14.9389 10.2955 14.8617 10.103 14.8399C6.64893 14.4453 5.14941 13.0381 4.92383 9.94143C4.89884 9.69616 4.88759 9.44968 4.89014 9.20315C4.87409 8.2198 5.19897 7.26123 5.80957 6.49026C5.87092 6.40988 5.93627 6.33263 6.00537 6.25881C6.1278 6.12181 6.21012 5.95373 6.24328 5.77301C6.27644 5.5923 6.25917 5.40594 6.19337 5.2344C6.1259 5.05393 6.07396 4.86803 6.0381 4.67873C5.95663 4.14044 5.98335 3.59132 6.1167 3.06349C6.98583 3.30896 7.80381 3.70853 8.5317 4.24317C8.65207 4.32334 8.78827 4.3767 8.93107 4.39961C9.07387 4.42253 9.21992 4.41447 9.35934 4.37599C11.3804 3.82749 13.5113 3.82783 15.5322 4.37699C15.6724 4.41543 15.8192 4.42303 15.9626 4.39926C16.106 4.37549 16.2425 4.32091 16.3627 4.2393C17.0872 3.70244 17.9018 3.2993 18.768 3.04887C18.9008 3.56402 18.9305 4.10032 18.8554 4.62699C18.8192 4.83453 18.7626 5.03799 18.6865 5.23442C18.6207 5.40596 18.6034 5.59232 18.6366 5.77303C18.6697 5.95375 18.752 6.12183 18.8745 6.25883C18.9516 6.34574 19.0288 6.43949 19.0981 6.52738C19.7044 7.2853 20.0238 8.23285 20 9.20314C20.0018 9.46275 19.9893 9.72226 19.9624 9.98048C19.7422 13.0361 18.2368 14.4443 14.7666 14.8398C14.5741 14.8618 14.392 14.9392 14.2427 15.0626C14.0933 15.1861 13.983 15.3503 13.9252 15.5353C13.8675 15.7202 13.8647 15.918 13.9172 16.1046C13.9698 16.2911 14.0754 16.4583 14.2212 16.5859C14.4698 16.831 14.6333 17.1493 14.6875 17.4941C14.7551 17.7618 14.7861 18.0375 14.7798 18.3135V20.6475C14.77 21.2949 14.77 21.7803 14.77 22.0029C14.77 22.2682 14.8754 22.5225 15.0629 22.71C15.2504 22.8976 15.5048 23.0029 15.77 23.0029C16.0352 23.0029 16.2896 22.8976 16.4771 22.71C16.6646 22.5225 16.77 22.2682 16.77 22.0029C16.77 21.7861 16.77 21.3106 16.7798 20.6631V18.3135C16.7878 17.8713 16.7357 17.4301 16.625 17.002C16.5933 16.8614 16.5545 16.7226 16.5088 16.586C18.03 16.3332 19.4122 15.5489 20.4094 14.3726C21.4065 13.1962 21.9539 11.7042 21.9541 10.1621C21.987 9.84355 22.0024 9.5234 22 9.20314C22.0222 7.82191 21.5773 6.47364 20.7373 5.37694Z" fill="#FFF"/>
</svg>
