<svg width="44" height="44" viewBox="0 0 44 44" fill="none" xmlns="http://www.w3.org/2000/svg">
<rect width="44" height="44" rx="11.4472" fill="url(#paint0_linear_49_21)"/>
<path d="M12.4698 32.0604L16.8882 23.2236C16.9586 23.0828 17.0911 22.9834 17.246 22.9553L21.9106 22.1072C22.2175 22.0514 22.5 22.2872 22.5 22.5991V28.8739C22.5 28.9567 22.4795 29.0381 22.4402 29.111L19.3806 34.7933C19.2051 35.1192 18.7486 35.148 18.5334 34.8468L16.6923 32.2693C16.5757 32.106 16.3728 32.0283 16.177 32.0718L13.0255 32.7721C12.6145 32.8634 12.2815 32.437 12.4698 32.0604Z" fill="#8E84F2"/>
<path d="M32.0302 32.0604L27.6118 23.2236C27.5414 23.0828 27.4089 22.9834 27.254 22.9553L22.5894 22.1072C22.2825 22.0514 22 22.2872 22 22.5991V28.8739C22 28.9567 22.0205 29.0381 22.0598 29.111L25.1194 34.7933C25.2949 35.1192 25.7514 35.148 25.9666 34.8468L27.8077 32.2693C27.9243 32.106 28.1272 32.0283 28.323 32.0718L31.4745 32.7721C31.8855 32.8634 32.2185 32.437 32.0302 32.0604Z" fill="#8E84F2"/>
<mask id="mask0_49_21" style="mask-type:alpha" maskUnits="userSpaceOnUse" x="7" y="12" width="13" height="17">
<path d="M11.3333 12.3272L20 15.8272V24.3272C18.3951 24.9939 14.4148 26.6272 11.3333 27.8272C8.25185 29.0272 7 27.3272 7 26.3272V14.3272C7 11.5272 9.88889 11.8272 11.3333 12.3272Z" fill="#FDFF73"/>
</mask>
<g mask="url(#mask0_49_21)">
<path d="M11.3333 12.3272L20 15.8272V24.3272C18.3951 24.9939 14.4148 26.6272 11.3333 27.8272C8.25185 29.0272 7 27.3272 7 26.3272V14.3272C7 11.5272 9.88889 11.8272 11.3333 12.3272Z" fill="white"/>
<path d="M18.0741 22.8271C18.5564 21.8257 16.6296 21.3271 16.6296 19.8271C16.6296 18.3271 18.8766 16.9938 20 15.8271L20 24.3271C17.4321 25.4938 12.2963 27.3271 9.40745 28.8271C6.68378 30.2414 6.47077 26.976 7.00001 25.3271C7.48149 23.8272 10.3704 23.8271 11.8148 23.8271C15.1852 23.8271 17.5926 23.8271 18.0741 22.8271Z" fill="#B5AFFF"/>
</g>
<mask id="mask1_49_21" style="mask-type:alpha" maskUnits="userSpaceOnUse" x="24" y="12" width="13" height="17">
<path d="M32.6667 12.3272L24 15.8272V24.3272C25.6049 24.9939 29.5852 26.6272 32.6667 27.8272C35.7481 29.0272 37 27.3272 37 26.3272V14.3272C37 11.5272 34.1111 11.8272 32.6667 12.3272Z" fill="#FDFF73"/>
</mask>
<g mask="url(#mask1_49_21)">
<path d="M32.6667 12.3272L24 15.8272V24.3272C25.6049 24.9939 29.5852 26.6272 32.6667 27.8272C35.7481 29.0272 37 27.3272 37 26.3272V14.3272C37 11.5272 34.1111 11.8272 32.6667 12.3272Z" fill="white"/>
<path d="M25.9259 22.8271C25.4436 21.8257 27.3704 21.3271 27.3704 19.8271C27.3704 18.3271 25.1234 16.9938 24 15.8271L24 24.3271C26.5679 25.4938 31.7037 27.3271 34.5926 28.8271C37.3162 30.2414 37.5292 26.976 37 25.3271C36.5185 23.8272 33.6296 23.8271 32.1852 23.8271C28.8148 23.8271 26.4074 23.8271 25.9259 22.8271Z" fill="#B5AFFF"/>
</g>
<rect x="19" y="14" width="6" height="12" rx="2" fill="white"/>
<defs>
<linearGradient id="paint0_linear_49_21" x1="41.5" y1="40.5" x2="3" y2="4.5" gradientUnits="userSpaceOnUse">
<stop stop-color="#4E3EDD"/>
<stop offset="1" stop-color="#6457FE"/>
</linearGradient>
</defs>
</svg>
