<svg width="44" height="44" viewBox="0 0 44 44" fill="none" xmlns="http://www.w3.org/2000/svg">
<rect width="44" height="44" rx="11.4472" fill="url(#paint0_linear_38_105)"/>
<mask id="mask0_38_105" style="mask-type:alpha" maskUnits="userSpaceOnUse" x="9" y="7" width="26" height="29">
<rect x="9" y="7.5" width="26" height="28" rx="3" fill="#FFCE52"/>
</mask>
<g mask="url(#mask0_38_105)">
<rect x="9" y="7.5" width="26" height="28" rx="3" fill="#B6AFFF"/>
<rect x="9" y="15.5" width="23" height="20" rx="3" fill="white"/>
<path d="M16 35.5L26.5 7.5H35V35.5H16Z" fill="#4E3EDD" fill-opacity="0.38"/>
<rect x="11" y="19.5" width="4.5" height="4" rx="1" fill="#6457FE"/>
<rect x="18" y="19.5" width="4.5" height="4" rx="1" fill="#6457FE"/>
<rect x="25" y="19.5" width="4.5" height="4" rx="1" fill="#6457FE"/>
<rect x="11" y="26.5" width="4.5" height="4" rx="1" fill="#6457FE"/>
<rect x="18" y="26.5" width="4.5" height="4" rx="1" fill="#6457FE"/>
<rect x="13" y="6.5" width="2.3" height="5" rx="1.15" fill="#3A2FA8"/>
<rect x="19.3" y="6.5" width="2.3" height="5" rx="1.15" fill="#3A2FA8"/>
<rect x="25.6" y="6.5" width="2.3" height="5" rx="1.15" fill="#3A2FA8"/>
</g>
<defs>
<linearGradient id="paint0_linear_38_105" x1="41.5" y1="40.5" x2="3" y2="4.5" gradientUnits="userSpaceOnUse">
<stop stop-color="#4E3EDD"/>
<stop offset="1" stop-color="#6457FE"/>
</linearGradient>
</defs>
</svg>
