<svg width="44" height="44" viewBox="0 0 44 44" fill="none" xmlns="http://www.w3.org/2000/svg">
<rect width="44" height="44" rx="11.4472" fill="url(#paint0_linear_44_7)"/>
<mask id="mask0_44_7" style="mask-type:alpha" maskUnits="userSpaceOnUse" x="10" y="12" width="24" height="23">
<path d="M34 12H13L12.2043 17.1493H28.3333L28 19.209H11.9122L11.1009 24.0149H27L26.3333 27.1045L19.3333 29.1642L15.6667 27.4478V25.7313H10.8954L10 31.2239L19.3333 35L31 30.5L34 12Z" fill="white"/>
</mask>
<g mask="url(#mask0_44_7)">
<path d="M34 12H13L12.2043 17.1493H28.3333L28 19.209H11.9122L11.1009 24.0149H27L26.3333 27.1045L19.3333 29.1642L15.6667 27.4478V25.7313H10.8954L10 31.2239L19.3333 35L31 30.5L34 12Z" fill="white"/>
<path d="M23.5 12L19 36L31 30.5L34 12H23.5Z" fill="#4E3EDD" fill-opacity="0.38"/>
</g>
<defs>
<linearGradient id="paint0_linear_44_7" x1="41.5" y1="40.5" x2="3" y2="4.5" gradientUnits="userSpaceOnUse">
<stop stop-color="#4E3EDD"/>
<stop offset="1" stop-color="#6457FE"/>
</linearGradient>
</defs>
</svg>
