<svg width="54" height="18" viewBox="0 0 626 225" fill="none" xmlns="http://www.w3.org/2000/svg">
<mask id="mask0_71_2" style="mask-type:alpha" maskUnits="userSpaceOnUse" x="0" y="0" width="626" height="225">
<path d="M33.0339 177.875L0 52.4384H39.04L56.5965 133.522H57.5205L76.232 52.4384H114.348L133.522 133.06H134.446L151.309 52.4384H190.58L157.546 177.875H115.965L96.0986 103.491H94.4815L74.615 177.875H33.0339Z" fill="black"/>
<path d="M245.329 106.032V177.875H206.288V52.4384H243.249V75.308H244.636C250.411 60.0616 264.271 50.8214 282.752 50.8214C309.086 50.8214 326.412 69.5329 326.181 97.9466V177.875H287.372V105.339C287.372 91.2474 279.748 82.7002 266.812 82.7002C253.876 82.7002 245.329 91.4784 245.329 106.032Z" fill="black"/>
<path d="M420.662 52.4384V81.0832H397.793V138.604C397.793 146.458 401.72 148.768 408.419 148.999C411.653 149.23 417.89 148.768 422.279 148.537V178.337C418.583 178.799 412.115 179.723 402.875 179.723C375.385 179.723 358.753 168.403 358.984 142.993V81.0832H342.12V52.4384H358.984V22.4076H397.793V52.4384H420.662Z" fill="black"/>
<path d="M440.76 52.4384H479.8V183.188C479.8 213.912 460.164 225 429.209 225L421.124 224.769V194.969C423.203 195.2 424.589 195.2 425.975 195.2C437.064 195.2 440.76 191.042 440.76 182.495V52.4384ZM460.164 37.423C449.076 37.423 440.067 29.1068 440.067 18.7115C440.067 8.31622 449.076 0 460.164 0C471.253 0 480.493 8.31622 480.493 18.7115C480.493 29.1068 471.253 37.423 460.164 37.423Z" fill="black"/>
<path d="M550.719 179.723C522.767 179.723 500.359 157.777 500.359 115.272C500.359 71.1499 524.153 50.8214 550.488 50.8214C570.585 50.8214 581.211 62.6027 586.063 73.922H586.987V10.6263H625.796V177.875H587.218V157.546H586.063C580.98 168.866 569.892 179.723 550.719 179.723ZM563.886 149.23C578.901 149.23 587.68 135.832 587.68 115.041C587.68 94.2505 579.132 81.3142 563.886 81.3142C548.64 81.3142 540.323 94.7125 540.323 115.041C540.323 135.832 548.871 149.23 563.886 149.23Z" fill="black"/>
</mask>
<g mask="url(#mask0_71_2)">
<rect x="279.071" y="-135.307" width="354.124" height="354.124" fill="#47B1F6"/>
<rect x="-33.8269" y="-93.0237" width="372.095" height="372.095" rx="186.047" fill="#6356FD"/>
<rect x="186.047" y="67.6536" width="558.142" height="558.142" rx="279.071" fill="#AD4BFC"/>
</g>
</svg>
